<svg width="264" height="264" viewBox="0 0 264 264" fill="none" xmlns="http://www.w3.org/2000/svg">
<g filter="url(#filter0_d)">
<path fill-rule="evenodd" clip-rule="evenodd" d="M132 217C178.944 217 217 178.944 217 132C217 85.0558 178.944 47 132 47C85.0558 47 47 85.0558 47 132C47 178.944 85.0558 217 132 217ZM132 193C165.689 193 193 165.689 193 132C193 98.3106 165.689 71 132 71C98.3106 71 71 98.3106 71 132C71 165.689 98.3106 193 132 193Z" fill="url(#paint0_linear)"/>
</g>
<defs>
<filter id="filter0_d" x="0" y="0" width="264" height="264" filterUnits="userSpaceOnUse" color-interpolation-filters="sRGB">
<feFlood flood-opacity="0" result="BackgroundImageFix"/>
<feColorMatrix in="SourceAlpha" type="matrix" values="0 0 0 0 0 0 0 0 0 0 0 0 0 0 0 0 0 0 127 0"/>
<feOffset/>
<feGaussianBlur stdDeviation="23.5"/>
<feColorMatrix type="matrix" values="0 0 0 0 0.752941 0 0 0 0 0.509804 0 0 0 0 0.905882 0 0 0 0.39 0"/>
<feBlend mode="normal" in2="BackgroundImageFix" result="effect1_dropShadow"/>
<feBlend mode="normal" in="SourceGraphic" in2="effect1_dropShadow" result="shape"/>
</filter>
<linearGradient id="paint0_linear" x1="87.5" y1="67" x2="184" y2="199.5" gradientUnits="userSpaceOnUse">
<stop stop-color="#C268FE"/>
<stop offset="0.488435" stop-color="#98F3E8"/>
<stop offset="1" stop-color="#736DFF"/>
</linearGradient>
</defs>
</svg>
